<svg width="100" height="200" fill="white" stroke="black" viewBox="0 0 100 200" xmlns="http://www.w3.org/2000/svg">
  <path d="
    M100 200
    L20 200
    L20 190
    L22 190
    L22 165
    L20 165
    L20 160
    L22 160
    L22 40
    L11 32
    L22 40
    L60 40
    L45 60
    L22 60
    L22 100
    L40 100
    L40 120
    L22 120
    L0 150
    L0 40
    L50 0
    L75 0
    L100 20
    L100 40
    L80 60
    L60 40
    L80 60
    L80 70
    L70 60
    L70 100
    L75 100
    L75 120
    L70 120
    L70 160
    L72 160
    L72 165
    L70 165
    L70 190
    L90 190
    L100 200
    L70 200
    L60 190
    L45 190
    L45 165
    L47 165
    L47 160
    L45 160
    L45 145 
    L45 160
    L47 160
    L47 165
    L45 165
    L45 190
    L60 190
    L70 200
    Z
    " 
  />
</svg>